<svg width="73" height="73" viewBox="0 0 73 73" fill="none" xmlns="http://www.w3.org/2000/svg">
<path d="M36.7584 12.8409C36.874 12.8455 36.9896 12.8501 37.1087 12.8548C38.3501 13.2367 38.8989 14.4216 39.4852 15.4875C39.6255 15.7366 39.7658 15.9858 39.9062 16.2348C40.0524 16.4947 40.1977 16.755 40.3429 17.0155C40.8103 17.8528 41.2895 18.6835 41.7664 19.5154C41.958 19.8505 42.1494 20.1859 42.3407 20.5212C42.8648 21.4397 43.3894 22.358 43.9142 23.2761C44.1518 23.6919 44.3893 24.1077 44.6269 24.5234C44.722 24.6898 44.817 24.8561 44.9121 25.0224C45.8626 26.6858 46.8131 28.3493 47.7636 30.0127C47.8107 30.095 47.8577 30.1773 47.9062 30.2621C48.0013 30.4286 48.0965 30.5951 48.1916 30.7617C48.4278 31.175 48.6641 31.5883 48.9005 32.0016C49.3456 32.7797 49.7899 33.5582 50.2313 34.3384C50.4395 34.7063 50.6481 35.0738 50.8568 35.4413C50.956 35.6163 51.0549 35.7914 51.1536 35.9667C51.2907 36.2099 51.4286 36.4527 51.5665 36.6955C51.6445 36.8336 51.7226 36.9717 51.803 37.114C52.0463 37.5066 52.3202 37.8529 52.6113 38.2109C52.676 38.1459 52.7408 38.0809 52.8075 38.0139C54.3835 36.4317 55.9602 34.8502 57.5379 33.2696C58.3008 32.5052 59.0634 31.7405 59.8255 30.9752C60.4897 30.3082 61.1544 29.6416 61.8198 28.9756C62.172 28.623 62.524 28.2702 62.8753 27.9167C63.2678 27.522 63.6613 27.1284 64.055 26.7349C64.1711 26.6178 64.2872 26.5006 64.4068 26.38C64.5145 26.2726 64.6223 26.1653 64.7333 26.0546C64.8262 25.9615 64.9191 25.8683 65.0149 25.7723C65.767 25.1125 66.3358 25.0172 67.3141 25.0436C68.0549 25.1341 68.4202 25.4913 68.9098 26.0205C69.3696 26.7017 69.3141 27.3995 69.3139 28.199C69.3144 28.3267 69.315 28.4545 69.3155 28.5862C69.3171 29.0152 69.3176 29.4442 69.3182 29.8733C69.3191 30.1806 69.32 30.4878 69.321 30.7951C69.324 31.8049 69.3255 32.8146 69.3269 33.8244C69.3275 34.172 69.3281 34.5196 69.3287 34.8672C69.3314 36.5 69.3334 38.1327 69.3346 39.7655C69.336 41.6506 69.3398 43.5357 69.3455 45.4207C69.3498 46.8777 69.3519 48.3346 69.3524 49.7915C69.3527 50.6617 69.354 51.532 69.3576 52.4022C69.3609 53.2209 69.3615 54.0396 69.36 54.8583C69.36 55.1586 69.3609 55.4588 69.3628 55.7591C69.3654 56.1695 69.3644 56.5798 69.3625 56.9903C69.3648 57.1678 69.3648 57.1678 69.3672 57.3489C69.3584 58.1535 69.1869 58.7882 68.7226 59.4551C67.95 60.07 67.3942 60.1858 66.4236 60.1871C66.319 60.1874 66.2143 60.1878 66.1065 60.1881C65.7532 60.1891 65.3998 60.189 65.0465 60.1889C64.7917 60.1894 64.5369 60.1899 64.2821 60.1905C63.5798 60.1919 62.8774 60.1925 62.1751 60.1929C61.4184 60.1934 60.6618 60.1948 59.9051 60.196C58.0768 60.1988 56.2484 60.2003 54.4201 60.2015C53.5595 60.2022 52.699 60.2029 51.8385 60.2037C48.9788 60.2061 46.1191 60.2082 43.2594 60.2092C42.517 60.2095 41.7746 60.2098 41.0323 60.21C40.8478 60.2101 40.6633 60.2102 40.4732 60.2102C37.483 60.2114 34.4929 60.215 31.5028 60.2197C28.4345 60.2244 25.3662 60.2269 22.2979 60.2274C20.5745 60.2277 18.8511 60.229 17.1278 60.2326C15.6603 60.2357 14.1928 60.2368 12.7253 60.2355C11.9764 60.2348 11.2275 60.2351 10.4786 60.2378C9.79306 60.2404 9.10753 60.2402 8.42195 60.238C8.17392 60.2377 7.92589 60.2383 7.67786 60.24C5.35163 60.2548 5.35164 60.2548 4.41989 59.5976C3.75816 58.7662 3.68592 58.1093 3.68698 57.0789C3.68655 56.9511 3.68613 56.8234 3.68569 56.6918C3.68445 56.2619 3.68424 55.8321 3.68403 55.4023C3.68337 55.0948 3.68265 54.7873 3.68188 54.4799C3.68001 53.6432 3.67909 52.8066 3.67846 51.97C3.67804 51.4475 3.67746 50.925 3.67682 50.4025C3.67487 48.7682 3.67349 47.134 3.67294 45.4998C3.6723 43.6123 3.6698 41.7248 3.66567 39.8373C3.66259 38.379 3.66115 36.9208 3.66096 35.4626C3.66081 34.5913 3.65996 33.72 3.65742 32.8488C3.65507 32.0291 3.65476 31.2095 3.65601 30.3898C3.65612 30.089 3.6555 29.7883 3.65409 29.4875C3.65228 29.0767 3.65312 28.666 3.6546 28.2552C3.65346 28.1364 3.65231 28.0175 3.65112 27.8951C3.65817 27.0623 3.78276 26.3486 4.35361 25.7008C4.9748 25.2401 5.30582 25.0636 6.07736 25.0313C6.22035 25.0227 6.36334 25.0141 6.51067 25.0052C7.67745 25.2224 8.57764 26.3601 9.382 27.1719C9.50176 27.2916 9.62152 27.4113 9.74492 27.5347C10.07 27.8599 10.3944 28.1858 10.7186 28.5119C11.0587 28.8538 11.3996 29.1949 11.7404 29.5361C12.3843 30.1808 13.0274 30.8262 13.6702 31.472C14.4027 32.2077 15.1361 32.9426 15.8694 33.6774C17.3768 35.1876 18.883 36.6989 20.3886 38.2109C20.7521 37.8612 20.9813 37.526 21.2246 37.082C21.303 36.9402 21.3814 36.7984 21.4622 36.6523C21.588 36.4225 21.588 36.4225 21.7164 36.1881C21.8968 35.8621 22.0774 35.5363 22.2583 35.2106C22.3044 35.1276 22.3505 35.0446 22.398 34.959C22.8568 34.1348 23.3323 33.3208 23.8105 32.5078C24.4899 31.3509 25.1542 30.1869 25.8066 29.0146C26.5389 27.6987 27.2897 26.3951 28.0522 25.0965C28.6471 24.0807 29.2263 23.0569 29.7988 22.0283C30.5375 20.7013 31.2916 19.3844 32.0623 18.0757C32.4715 17.3798 32.8743 16.6816 33.2636 15.9743C33.3767 15.7704 33.3767 15.7704 33.4921 15.5623C33.6329 15.3077 33.7721 15.0522 33.9094 14.7957C34.3518 13.999 34.8828 13.169 35.7966 12.882C36.1278 12.8219 36.4223 12.8203 36.7584 12.8409ZM34.0761 24.0957C34.0011 24.2308 34.0011 24.2308 33.9246 24.3686C32.9923 26.0453 32.0535 27.7167 31.082 29.3711C30.4027 30.528 29.7383 31.692 29.0859 32.8642C28.3536 34.1801 27.6028 35.4837 26.8403 36.7823C26.2454 37.7982 25.6662 38.8219 25.0937 39.8506C24.3614 41.1665 23.6106 42.4701 22.8481 43.7687C22.2532 44.7845 21.674 45.8083 21.1015 46.8369C20.4459 48.0149 19.7785 49.1849 19.0965 50.3479C18.4079 51.5224 17.727 52.7009 17.0559 53.8856C16.9752 54.0276 16.8945 54.1696 16.8113 54.3159C16.738 54.4457 16.6647 54.5756 16.5892 54.7093C16.5242 54.8242 16.4593 54.939 16.3923 55.0574C16.2428 55.2918 16.2428 55.2918 16.2539 55.4629C22.1823 55.4629 28.1107 55.4629 34.2187 55.4629C34.2187 45.1117 34.2187 34.7605 34.2187 24.0957C34.1717 24.0957 34.1246 24.0957 34.0761 24.0957ZM38.7812 24.0957C38.7812 33.3176 38.7812 42.5396 38.7812 52.041C39.4637 51.456 40.1121 50.8728 40.7433 50.2377C40.8338 50.1472 40.9244 50.0566 41.0177 49.9634C41.3135 49.6675 41.6087 49.3711 41.904 49.0747C42.1103 48.8681 42.3167 48.6616 42.5231 48.455C43.0637 47.9139 43.6038 47.3723 44.1439 46.8307C44.6961 46.277 45.2487 45.7238 45.8012 45.1705C46.8835 44.0867 47.9653 43.0025 49.0468 41.9179C48.8669 41.5787 48.6867 41.2397 48.5064 40.9006C48.456 40.8056 48.4056 40.7105 48.3537 40.6126C47.9112 39.7812 47.4418 38.9677 46.9616 38.1574C46.2639 36.9712 45.5811 35.7779 44.9121 34.5752C44.1805 33.2605 43.4305 31.9582 42.6687 30.6608C41.969 29.4661 41.29 28.2605 40.6177 27.0503C40.2077 26.3129 39.7939 25.5778 39.3733 24.8464C39.2907 24.7028 39.2082 24.5591 39.1231 24.4111C39.0574 24.307 38.9916 24.2029 38.9238 24.0957C38.8767 24.0957 38.8297 24.0957 38.7812 24.0957ZM8.41208 33.0781C8.41208 40.4651 8.41208 47.852 8.41208 55.4629C9.21194 55.4629 10.0118 55.4629 10.8359 55.4629C11.0432 55.1001 11.0432 55.1001 11.2547 54.7299C11.9739 53.4713 12.6931 52.2127 13.4123 50.9541C13.4595 50.8716 13.5066 50.7891 13.5552 50.7041C13.6962 50.4574 13.8371 50.2107 13.9781 49.9641C14.1649 49.6372 14.3516 49.3103 14.5383 48.9834C14.9829 48.2052 15.4277 47.4271 15.8737 46.6496C16.0837 46.2834 16.2935 45.9171 16.5033 45.5508C16.6031 45.3766 16.703 45.2025 16.8031 45.0284C16.9419 44.7867 17.0805 44.5447 17.2191 44.3028C17.2979 44.1654 17.3767 44.0281 17.4579 43.8865C17.6867 43.4735 17.8974 43.0537 18.1074 42.6308C16.8647 41.3849 15.6217 40.1393 14.3782 38.8943C13.8009 38.3162 13.2237 37.738 12.6468 37.1595C12.0906 36.6017 11.534 36.0443 10.9772 35.4871C10.7643 35.274 10.5515 35.0607 10.3389 34.8472C10.0422 34.5495 9.74501 34.2522 9.44775 33.955C9.35894 33.8657 9.27013 33.7764 9.17863 33.6843C8.84825 33.2721 8.84825 33.2721 8.41208 33.0781ZM63.8447 33.6596C63.7586 33.746 63.6725 33.8325 63.5837 33.9215C63.4473 34.0576 63.4473 34.0576 63.3081 34.1965C63.0009 34.5032 62.6941 34.8104 62.3873 35.1176C62.1682 35.3365 61.9491 35.5554 61.7299 35.7743C61.1327 36.3708 60.5361 36.9677 59.9395 37.5648C59.3167 38.1879 58.6935 38.8107 58.0705 39.4336C57.0239 40.4798 55.9777 41.5264 54.9316 42.5732C53.7202 43.7854 52.5083 44.997 51.2961 46.2085C50.2575 47.2464 49.2192 48.2846 48.1812 49.323C47.5602 49.9442 46.9392 50.5652 46.3179 51.186C45.734 51.7696 45.1504 52.3534 44.5671 52.9376C44.3522 53.1526 44.1373 53.3675 43.9222 53.5823C43.63 53.8741 43.3382 54.1664 43.0465 54.4587C42.9169 54.5879 42.9169 54.5879 42.7846 54.7197C42.3875 55.0394 42.3875 55.0394 42.2031 55.4629C49.5901 55.4629 56.977 55.4629 64.5879 55.4629C64.5879 48.0759 64.5879 40.6889 64.5879 33.0781C64.2704 33.0781 64.0584 33.4469 63.8447 33.6596Z" fill="#FFD700"/>
</svg>
