<svg width="73" height="73" viewBox="0 0 73 73" fill="none" xmlns="http://www.w3.org/2000/svg">
<path d="M34.6465 16.3965C34.6935 16.3965 34.7406 16.3965 34.7891 16.3965C34.7891 29.6648 34.7891 42.9331 34.7891 56.6035C27.2139 56.6035 19.6387 56.6035 11.834 56.6035C12.0487 56.0668 12.2663 55.6004 12.5446 55.0992C12.6299 54.9454 12.7152 54.7917 12.8031 54.6333C12.8959 54.4672 12.9887 54.3012 13.0815 54.1351C13.1289 54.0501 13.1763 53.9651 13.2251 53.8774C13.9709 52.5389 14.7357 51.2123 15.5122 49.8913C16.1053 48.8803 16.682 47.8611 17.252 46.8369C17.9843 45.521 18.7351 44.2174 19.4976 42.9188C20.0925 41.903 20.6717 40.8792 21.2441 39.8506C21.9765 38.5347 22.7273 37.2311 23.4897 35.9325C24.0846 34.9166 24.6639 33.8929 25.2363 32.8643C25.9687 31.5484 26.7194 30.2448 27.4819 28.9461C28.0768 27.9303 28.6561 26.9066 29.2285 25.8779C29.9597 24.564 30.7092 23.2623 31.4707 21.9658C32.1878 20.7413 32.8831 19.5053 33.573 18.2653C33.6514 18.1244 33.7297 17.9836 33.8105 17.8384C33.8792 17.7146 33.9479 17.5908 34.0186 17.4632C34.2221 17.1034 34.425 16.7456 34.6465 16.3965Z" fill="#FFD700"/>
<path d="M69.293 27.9453C69.293 37.4025 69.293 46.8597 69.293 56.6035C59.8358 56.6035 50.3786 56.6035 40.6348 56.6035C40.8768 56.1195 41.0267 55.8908 41.3929 55.5244C41.4911 55.4254 41.5893 55.3264 41.6905 55.2244C41.7988 55.1168 41.9071 55.0092 42.0186 54.8983C42.1907 54.7255 42.1907 54.7255 42.3663 54.5492C42.7523 54.1622 43.1392 53.7761 43.5261 53.3901C43.8026 53.1134 44.0788 52.8365 44.3551 52.5597C45.0283 51.8851 45.7023 51.2114 46.3766 50.5379C46.9244 49.9908 47.4719 49.4434 48.0191 48.8958C48.097 48.818 48.1748 48.7401 48.255 48.6598C48.4131 48.5017 48.5712 48.3435 48.7293 48.1853C50.2122 46.7015 51.696 45.2187 53.18 43.7362C54.4546 42.4629 55.7283 41.189 57.0015 39.9144C58.4791 38.4353 59.9572 36.9566 61.436 35.4787C61.5935 35.3212 61.7511 35.1638 61.9086 35.0064C61.9861 34.9289 62.0636 34.8514 62.1435 34.7716C62.6908 34.2246 63.2378 33.6772 63.7846 33.1296C64.4504 32.463 65.1168 31.7969 65.7838 31.1314C66.1243 30.7916 66.4646 30.4515 66.8043 30.1109C67.1719 29.7426 67.5404 29.3751 67.9091 29.0078C68.0174 28.8989 68.1256 28.79 68.2372 28.6778C68.3845 28.5316 68.3845 28.5316 68.5349 28.3824C68.6199 28.2974 68.705 28.2123 68.7926 28.1248C69.0078 27.9453 69.0078 27.9453 69.293 27.9453Z" fill="#FFD700"/>
<path d="M38.2109 16.3965C38.6241 16.913 38.9255 17.3329 39.2346 17.9008C39.319 18.0546 39.4033 18.2083 39.4903 18.3667C39.6245 18.6133 39.6245 18.6133 39.7615 18.8649C39.9535 19.2147 40.1461 19.5642 40.339 19.9136C40.3877 20.0018 40.4364 20.0901 40.4866 20.181C40.9535 21.0243 41.438 21.857 41.9269 22.6877C42.6035 23.8386 43.2649 24.9965 43.9141 26.1631C44.5665 27.3354 45.2309 28.4993 45.9102 29.6562C46.5894 30.8132 47.2538 31.9771 47.9062 33.1494C48.7314 34.6316 49.5781 36.1 50.4365 37.5632C50.5111 37.6914 50.5856 37.8196 50.6625 37.9517C50.8329 38.2396 51.0078 38.5248 51.1856 38.8082C51.2784 38.9586 51.3712 39.1091 51.4668 39.2641C51.5526 39.4003 51.6385 39.5364 51.7269 39.6766C51.9328 40.1421 51.9048 40.2982 51.7559 40.7773C51.5294 41.0744 51.5294 41.0744 51.2309 41.3719C51.1181 41.4856 51.0053 41.5994 50.8892 41.7166C50.7646 41.8393 50.64 41.9621 50.5116 42.0886C50.3159 42.2848 50.3159 42.2848 50.1162 42.485C49.7586 42.8433 49.3994 43.1998 49.0398 43.556C48.664 43.9287 48.2898 44.303 47.9154 44.6771C47.2868 45.3048 46.6572 45.9314 46.0268 46.5572C45.2167 47.3616 44.4082 48.1677 43.6002 48.9743C42.9064 49.6669 42.212 50.3588 41.5175 51.0506C41.2937 51.2735 41.07 51.4965 40.8463 51.7194C40.4306 52.1337 40.0142 52.5472 39.5977 52.9607C39.4731 53.0849 39.3486 53.2091 39.2202 53.3371C39.1074 53.4488 38.9947 53.5606 38.8785 53.6757C38.78 53.7736 38.6815 53.8715 38.58 53.9724C38.3535 54.1797 38.3535 54.1797 38.2109 54.1797C38.2109 41.7112 38.2109 29.2428 38.2109 16.3965Z" fill="#FFD700"/>
<path d="M3.70703 27.9453C4.20072 28.1922 4.43405 28.352 4.80855 28.7283C4.91189 28.8315 5.01523 28.9346 5.1217 29.0409C5.23363 29.1541 5.34556 29.2673 5.46089 29.3839C5.57988 29.5031 5.69887 29.6223 5.82147 29.7451C6.14718 30.0715 6.47226 30.3986 6.79708 30.726C7.13732 31.0685 7.47843 31.4102 7.81946 31.752C8.46532 32.3995 9.1105 33.0476 9.75539 33.696C10.9105 34.8575 12.0665 36.0182 13.2232 37.1781C13.5625 37.5185 13.9017 37.859 14.2404 38.1999C14.618 38.5798 14.9959 38.9593 15.374 39.3388C15.5423 39.5085 15.5423 39.5085 15.714 39.6817C15.8684 39.8365 15.8684 39.8365 16.026 39.9943C16.1599 40.129 16.1599 40.129 16.2965 40.2664C16.5558 40.5199 16.5558 40.5199 16.9668 40.7773C16.7676 41.3046 16.5297 41.7891 16.2561 42.2817C16.1708 42.4354 16.0856 42.5892 15.9977 42.7476C15.9049 42.9137 15.8121 43.0797 15.7192 43.2457C15.6719 43.3308 15.6245 43.4158 15.5757 43.5034C14.8299 44.842 14.0651 46.1685 13.2886 47.4896C12.6955 48.5006 12.1188 49.5197 11.5488 50.5439C10.8652 51.7715 10.171 52.9923 9.46362 54.2064C9.33956 54.4198 9.33956 54.4198 9.213 54.6375C9.09611 54.8374 9.09611 54.8374 8.97685 55.0413C8.90892 55.1575 8.84098 55.2737 8.77099 55.3934C8.52049 55.8041 8.25125 56.2032 7.98438 56.6035C6.57285 56.6035 5.16133 56.6035 3.70703 56.6035C3.70703 47.1463 3.70703 37.6891 3.70703 27.9453Z" fill="#FFD700"/>
</svg>
