<svg width="193" height="104" viewBox="0 0 193 104" fill="none" xmlns="http://www.w3.org/2000/svg">
<path d="M1.8 100V98.02H3.975V91.48H1.8V89.5H8.4V91.48H6.225V98.02H8.4V100H1.8ZM12.0253 100V92.065H14.0803L14.1253 93.82L13.6903 93.76C13.8103 93.52 13.9753 93.29 14.1853 93.07C14.3953 92.85 14.6403 92.655 14.9203 92.485C15.2103 92.315 15.5203 92.18 15.8503 92.08C16.1903 91.97 16.5503 91.915 16.9303 91.915C17.3803 91.915 17.7903 91.985 18.1603 92.125C18.5403 92.265 18.8553 92.49 19.1053 92.8C19.3653 93.1 19.5553 93.495 19.6753 93.985L19.2253 93.925L19.3453 93.685C19.4853 93.455 19.6653 93.24 19.8853 93.04C20.1053 92.83 20.3603 92.64 20.6503 92.47C20.9503 92.3 21.2653 92.165 21.5953 92.065C21.9253 91.965 22.2653 91.915 22.6153 91.915C23.3453 91.915 23.9353 92.055 24.3853 92.335C24.8353 92.605 25.1653 92.99 25.3753 93.49C25.5853 93.99 25.6903 94.575 25.6903 95.245V100H23.5603V95.455C23.5603 95.095 23.5053 94.79 23.3953 94.54C23.2853 94.29 23.1203 94.1 22.9003 93.97C22.6803 93.83 22.3903 93.76 22.0303 93.76C21.7303 93.76 21.4503 93.81 21.1903 93.91C20.9403 94 20.7153 94.13 20.5153 94.3C20.3253 94.47 20.1753 94.67 20.0653 94.9C19.9653 95.12 19.9153 95.36 19.9153 95.62V100H17.7853V95.44C17.7853 95.1 17.7203 94.805 17.5903 94.555C17.4703 94.295 17.2903 94.1 17.0503 93.97C16.8103 93.83 16.5003 93.76 16.1203 93.76C15.8303 93.76 15.5653 93.81 15.3253 93.91C15.0953 94.01 14.8903 94.145 14.7103 94.315C14.5403 94.485 14.4053 94.67 14.3053 94.87C14.2053 95.07 14.1553 95.275 14.1553 95.485V100H12.0253ZM29.3858 103.3V92.065H31.4258L31.4858 93.85L31.1108 93.715C31.1808 93.405 31.3708 93.115 31.6808 92.845C31.9908 92.575 32.3808 92.355 32.8508 92.185C33.3208 92.005 33.8208 91.915 34.3508 91.915C35.1408 91.915 35.8358 92.095 36.4358 92.455C37.0358 92.805 37.5058 93.29 37.8458 93.91C38.1858 94.52 38.3558 95.225 38.3558 96.025C38.3558 96.815 38.1858 97.52 37.8458 98.14C37.5058 98.76 37.0308 99.25 36.4208 99.61C35.8208 99.96 35.1308 100.135 34.3508 100.135C33.8108 100.135 33.3008 100.045 32.8208 99.865C32.3408 99.675 31.9408 99.435 31.6208 99.145C31.3108 98.855 31.1108 98.555 31.0208 98.245L31.5158 98.035V103.3H29.3858ZM33.8708 98.305C34.3508 98.305 34.7708 98.21 35.1308 98.02C35.4908 97.83 35.7708 97.565 35.9708 97.225C36.1808 96.875 36.2858 96.475 36.2858 96.025C36.2858 95.575 36.1858 95.18 35.9858 94.84C35.7858 94.5 35.5058 94.235 35.1458 94.045C34.7858 93.855 34.3608 93.76 33.8708 93.76C33.3908 93.76 32.9658 93.855 32.5958 94.045C32.2358 94.225 31.9508 94.49 31.7408 94.84C31.5408 95.18 31.4408 95.575 31.4408 96.025C31.4408 96.475 31.5408 96.875 31.7408 97.225C31.9508 97.565 32.2358 97.83 32.5958 98.02C32.9658 98.21 33.3908 98.305 33.8708 98.305ZM45.2382 100.15C44.2882 100.15 43.4532 99.975 42.7332 99.625C42.0232 99.275 41.4682 98.795 41.0682 98.185C40.6682 97.575 40.4682 96.875 40.4682 96.085C40.4682 95.455 40.5832 94.885 40.8132 94.375C41.0432 93.865 41.3632 93.425 41.7732 93.055C42.1832 92.685 42.6632 92.4 43.2132 92.2C43.7632 92 44.3532 91.9 44.9832 91.9C45.5832 91.9 46.1382 91.995 46.6482 92.185C47.1682 92.375 47.6182 92.65 47.9982 93.01C48.3782 93.36 48.6732 93.775 48.8832 94.255C49.0932 94.735 49.1882 95.265 49.1682 95.845L49.1532 96.535H41.9382L41.5932 95.2H47.3982L47.1582 95.47V95.14C47.1282 94.87 47.0082 94.625 46.7982 94.405C46.5982 94.185 46.3432 94.01 46.0332 93.88C45.7232 93.75 45.3832 93.685 45.0132 93.685C44.5132 93.685 44.0732 93.77 43.6932 93.94C43.3132 94.1 43.0132 94.345 42.7932 94.675C42.5832 95.005 42.4782 95.42 42.4782 95.92C42.4782 96.4 42.6032 96.82 42.8532 97.18C43.1132 97.53 43.4682 97.805 43.9182 98.005C44.3782 98.195 44.9132 98.29 45.5232 98.29C46.0432 98.29 46.4832 98.225 46.8432 98.095C47.2132 97.955 47.5532 97.775 47.8632 97.555L48.8382 98.98C48.5282 99.22 48.1732 99.43 47.7732 99.61C47.3832 99.79 46.9732 99.925 46.5432 100.015C46.1132 100.105 45.6782 100.15 45.2382 100.15ZM52.2227 100V92.065H54.2627L54.3377 94.765L53.8577 94.45C53.9977 93.98 54.2227 93.55 54.5327 93.16C54.8527 92.77 55.2227 92.465 55.6427 92.245C56.0627 92.015 56.5027 91.9 56.9627 91.9C57.2227 91.9 57.4677 91.925 57.6977 91.975C57.9377 92.025 58.1327 92.09 58.2827 92.17L57.7127 94.48C57.5627 94.38 57.3627 94.3 57.1127 94.24C56.8727 94.18 56.6327 94.15 56.3927 94.15C56.0927 94.15 55.8127 94.205 55.5527 94.315C55.3027 94.415 55.0877 94.555 54.9077 94.735C54.7277 94.915 54.5877 95.12 54.4877 95.35C54.3977 95.58 54.3527 95.82 54.3527 96.07V100H52.2227ZM61.1318 100V92.065H63.2618V100H61.1318ZM62.1968 90.37C61.7768 90.37 61.4518 90.27 61.2218 90.07C61.0018 89.87 60.8918 89.585 60.8918 89.215C60.8918 88.875 61.0068 88.6 61.2368 88.39C61.4668 88.17 61.7868 88.06 62.1968 88.06C62.6068 88.06 62.9218 88.165 63.1418 88.375C63.3718 88.575 63.4868 88.855 63.4868 89.215C63.4868 89.565 63.3718 89.845 63.1418 90.055C62.9118 90.265 62.5968 90.37 62.1968 90.37ZM70.2681 100.15C69.4881 100.15 68.7981 99.975 68.1981 99.625C67.6081 99.265 67.1431 98.775 66.8031 98.155C66.4731 97.535 66.3081 96.82 66.3081 96.01C66.3081 95.21 66.4781 94.505 66.8181 93.895C67.1681 93.275 67.6431 92.79 68.2431 92.44C68.8531 92.08 69.5531 91.9 70.3431 91.9C70.8031 91.9 71.2281 91.96 71.6181 92.08C72.0081 92.2 72.3481 92.365 72.6381 92.575C72.9281 92.775 73.1631 93 73.3431 93.25C73.5331 93.49 73.6531 93.745 73.7031 94.015L73.2231 94V92.065H75.3231V100H73.1931V97.975L73.6431 98.02C73.5831 98.28 73.4581 98.535 73.2681 98.785C73.0781 99.035 72.8281 99.265 72.5181 99.475C72.2181 99.675 71.8731 99.84 71.4831 99.97C71.1031 100.09 70.6981 100.15 70.2681 100.15ZM70.8381 98.305C71.3181 98.305 71.7381 98.21 72.0981 98.02C72.4681 97.83 72.7531 97.565 72.9531 97.225C73.1531 96.875 73.2531 96.47 73.2531 96.01C73.2531 95.57 73.1531 95.18 72.9531 94.84C72.7531 94.5 72.4681 94.23 72.0981 94.03C71.7381 93.83 71.3181 93.73 70.8381 93.73C70.3581 93.73 69.9381 93.83 69.5781 94.03C69.2181 94.23 68.9331 94.5 68.7231 94.84C68.5231 95.18 68.4231 95.57 68.4231 96.01C68.4231 96.47 68.5231 96.875 68.7231 97.225C68.9331 97.565 69.2181 97.83 69.5781 98.02C69.9381 98.21 70.3581 98.305 70.8381 98.305ZM79.0433 100V88.9H81.1733V100H79.0433ZM90.8057 100V89.5H96.0257C96.7257 89.5 97.3457 89.645 97.8857 89.935C98.4357 90.215 98.8607 90.61 99.1607 91.12C99.4707 91.62 99.6257 92.19 99.6257 92.83C99.6257 93.47 99.4657 94.05 99.1457 94.57C98.8257 95.09 98.3857 95.505 97.8257 95.815C97.2757 96.115 96.6657 96.265 95.9957 96.265H92.9807V100H90.8057ZM97.5107 100L94.4807 95.26L96.8207 94.885L100.151 100.015L97.5107 100ZM92.9807 94.435H95.8307C96.1307 94.435 96.3957 94.37 96.6257 94.24C96.8557 94.11 97.0357 93.93 97.1657 93.7C97.2957 93.47 97.3607 93.21 97.3607 92.92C97.3607 92.63 97.2857 92.375 97.1357 92.155C96.9957 91.935 96.7957 91.765 96.5357 91.645C96.2857 91.515 95.9907 91.45 95.6507 91.45H92.9807V94.435ZM106.82 100.15C105.87 100.15 105.035 99.975 104.315 99.625C103.605 99.275 103.05 98.795 102.65 98.185C102.25 97.575 102.05 96.875 102.05 96.085C102.05 95.455 102.165 94.885 102.395 94.375C102.625 93.865 102.945 93.425 103.355 93.055C103.765 92.685 104.245 92.4 104.795 92.2C105.345 92 105.935 91.9 106.565 91.9C107.165 91.9 107.72 91.995 108.23 92.185C108.75 92.375 109.2 92.65 109.58 93.01C109.96 93.36 110.255 93.775 110.465 94.255C110.675 94.735 110.77 95.265 110.75 95.845L110.735 96.535H103.52L103.175 95.2H108.98L108.74 95.47V95.14C108.71 94.87 108.59 94.625 108.38 94.405C108.18 94.185 107.925 94.01 107.615 93.88C107.305 93.75 106.965 93.685 106.595 93.685C106.095 93.685 105.655 93.77 105.275 93.94C104.895 94.1 104.595 94.345 104.375 94.675C104.165 95.005 104.06 95.42 104.06 95.92C104.06 96.4 104.185 96.82 104.435 97.18C104.695 97.53 105.05 97.805 105.5 98.005C105.96 98.195 106.495 98.29 107.105 98.29C107.625 98.29 108.065 98.225 108.425 98.095C108.795 97.955 109.135 97.775 109.445 97.555L110.42 98.98C110.11 99.22 109.755 99.43 109.355 99.61C108.965 99.79 108.555 99.925 108.125 100.015C107.695 100.105 107.26 100.15 106.82 100.15ZM116.745 100.15C115.895 100.15 115.135 100.03 114.465 99.79C113.795 99.54 113.25 99.18 112.83 98.71L114.165 97.54C114.495 97.88 114.89 98.135 115.35 98.305C115.81 98.475 116.3 98.56 116.82 98.56C117 98.56 117.175 98.545 117.345 98.515C117.525 98.485 117.68 98.44 117.81 98.38C117.94 98.31 118.045 98.225 118.125 98.125C118.205 98.025 118.245 97.91 118.245 97.78C118.245 97.56 118.11 97.385 117.84 97.255C117.67 97.195 117.45 97.13 117.18 97.06C116.92 96.99 116.625 96.925 116.295 96.865C115.735 96.745 115.245 96.61 114.825 96.46C114.405 96.31 114.055 96.125 113.775 95.905C113.555 95.695 113.385 95.46 113.265 95.2C113.145 94.94 113.085 94.64 113.085 94.3C113.085 93.94 113.175 93.61 113.355 93.31C113.535 93.01 113.79 92.76 114.12 92.56C114.45 92.35 114.825 92.19 115.245 92.08C115.675 91.96 116.13 91.9 116.61 91.9C117.07 91.9 117.52 91.95 117.96 92.05C118.41 92.14 118.835 92.275 119.235 92.455C119.635 92.635 119.98 92.86 120.27 93.13L119.16 94.42C118.94 94.25 118.685 94.095 118.395 93.955C118.105 93.805 117.8 93.69 117.48 93.61C117.17 93.52 116.865 93.475 116.565 93.475C116.385 93.475 116.205 93.49 116.025 93.52C115.855 93.54 115.705 93.58 115.575 93.64C115.445 93.7 115.34 93.775 115.26 93.865C115.19 93.955 115.155 94.065 115.155 94.195C115.155 94.305 115.18 94.405 115.23 94.495C115.29 94.575 115.37 94.645 115.47 94.705C115.62 94.805 115.835 94.895 116.115 94.975C116.395 95.045 116.74 95.125 117.15 95.215C117.73 95.335 118.23 95.475 118.65 95.635C119.08 95.785 119.425 95.975 119.685 96.205C119.895 96.365 120.055 96.565 120.165 96.805C120.275 97.035 120.33 97.295 120.33 97.585C120.33 98.095 120.17 98.545 119.85 98.935C119.54 99.315 119.115 99.615 118.575 99.835C118.045 100.045 117.435 100.15 116.745 100.15ZM124.035 100V89.875H126.165V100H124.035ZM122.19 93.97V92.065H128.265V93.97H122.19ZM134.267 100.15C133.487 100.15 132.797 99.975 132.197 99.625C131.607 99.265 131.142 98.775 130.802 98.155C130.472 97.535 130.307 96.82 130.307 96.01C130.307 95.21 130.477 94.505 130.817 93.895C131.167 93.275 131.642 92.79 132.242 92.44C132.852 92.08 133.552 91.9 134.342 91.9C134.802 91.9 135.227 91.96 135.617 92.08C136.007 92.2 136.347 92.365 136.637 92.575C136.927 92.775 137.162 93 137.342 93.25C137.532 93.49 137.652 93.745 137.702 94.015L137.222 94V92.065H139.322V100H137.192V97.975L137.642 98.02C137.582 98.28 137.457 98.535 137.267 98.785C137.077 99.035 136.827 99.265 136.517 99.475C136.217 99.675 135.872 99.84 135.482 99.97C135.102 100.09 134.697 100.15 134.267 100.15ZM134.837 98.305C135.317 98.305 135.737 98.21 136.097 98.02C136.467 97.83 136.752 97.565 136.952 97.225C137.152 96.875 137.252 96.47 137.252 96.01C137.252 95.57 137.152 95.18 136.952 94.84C136.752 94.5 136.467 94.23 136.097 94.03C135.737 93.83 135.317 93.73 134.837 93.73C134.357 93.73 133.937 93.83 133.577 94.03C133.217 94.23 132.932 94.5 132.722 94.84C132.522 95.18 132.422 95.57 132.422 96.01C132.422 96.47 132.522 96.875 132.722 97.225C132.932 97.565 133.217 97.83 133.577 98.02C133.937 98.21 134.357 98.305 134.837 98.305ZM145.881 100.15C145.251 100.15 144.701 100.01 144.231 99.73C143.771 99.45 143.416 99.045 143.166 98.515C142.916 97.985 142.791 97.345 142.791 96.595V92.065H144.921V96.19C144.921 96.64 144.986 97.025 145.116 97.345C145.246 97.655 145.446 97.89 145.716 98.05C145.986 98.21 146.316 98.29 146.706 98.29C146.996 98.29 147.261 98.245 147.501 98.155C147.751 98.065 147.966 97.935 148.146 97.765C148.326 97.595 148.466 97.395 148.566 97.165C148.676 96.935 148.731 96.68 148.731 96.4V92.065H150.861V100H148.836L148.761 98.365L149.151 98.185C149.041 98.525 148.831 98.85 148.521 99.16C148.211 99.46 147.831 99.7 147.381 99.88C146.931 100.06 146.431 100.15 145.881 100.15ZM154.63 100V92.065H156.67L156.745 94.765L156.265 94.45C156.405 93.98 156.63 93.55 156.94 93.16C157.26 92.77 157.63 92.465 158.05 92.245C158.47 92.015 158.91 91.9 159.37 91.9C159.63 91.9 159.875 91.925 160.105 91.975C160.345 92.025 160.54 92.09 160.69 92.17L160.12 94.48C159.97 94.38 159.77 94.3 159.52 94.24C159.28 94.18 159.04 94.15 158.8 94.15C158.5 94.15 158.22 94.205 157.96 94.315C157.71 94.415 157.495 94.555 157.315 94.735C157.135 94.915 156.995 95.12 156.895 95.35C156.805 95.58 156.76 95.82 156.76 96.07V100H154.63ZM166.142 100.15C165.362 100.15 164.672 99.975 164.072 99.625C163.482 99.265 163.017 98.775 162.677 98.155C162.347 97.535 162.182 96.82 162.182 96.01C162.182 95.21 162.352 94.505 162.692 93.895C163.042 93.275 163.517 92.79 164.117 92.44C164.727 92.08 165.427 91.9 166.217 91.9C166.677 91.9 167.102 91.96 167.492 92.08C167.882 92.2 168.222 92.365 168.512 92.575C168.802 92.775 169.037 93 169.217 93.25C169.407 93.49 169.527 93.745 169.577 94.015L169.097 94V92.065H171.197V100H169.067V97.975L169.517 98.02C169.457 98.28 169.332 98.535 169.142 98.785C168.952 99.035 168.702 99.265 168.392 99.475C168.092 99.675 167.747 99.84 167.357 99.97C166.977 100.09 166.572 100.15 166.142 100.15ZM166.712 98.305C167.192 98.305 167.612 98.21 167.972 98.02C168.342 97.83 168.627 97.565 168.827 97.225C169.027 96.875 169.127 96.47 169.127 96.01C169.127 95.57 169.027 95.18 168.827 94.84C168.627 94.5 168.342 94.23 167.972 94.03C167.612 93.83 167.192 93.73 166.712 93.73C166.232 93.73 165.812 93.83 165.452 94.03C165.092 94.23 164.807 94.5 164.597 94.84C164.397 95.18 164.297 95.57 164.297 96.01C164.297 96.47 164.397 96.875 164.597 97.225C164.807 97.565 165.092 97.83 165.452 98.02C165.812 98.21 166.232 98.305 166.712 98.305ZM174.947 100V92.065H176.987L177.032 93.925L176.522 94.075C176.662 93.695 176.887 93.34 177.197 93.01C177.517 92.68 177.902 92.415 178.352 92.215C178.802 92.005 179.287 91.9 179.807 91.9C180.497 91.9 181.072 92.035 181.532 92.305C182.002 92.575 182.357 92.955 182.597 93.445C182.837 93.935 182.957 94.525 182.957 95.215V100H180.827V95.5C180.827 95.11 180.757 94.785 180.617 94.525C180.477 94.265 180.272 94.07 180.002 93.94C179.742 93.8 179.437 93.73 179.087 93.73C178.787 93.73 178.512 93.785 178.262 93.895C178.022 93.995 177.812 94.13 177.632 94.3C177.452 94.47 177.312 94.66 177.212 94.87C177.112 95.07 177.062 95.28 177.062 95.5V100H176.012C175.732 100 175.502 100 175.322 100C175.152 100 175.027 100 174.947 100ZM187.565 100V89.875H189.695V100H187.565ZM185.72 93.97V92.065H191.795V93.97H185.72Z" fill="#FFD700"/>
<path d="M94.6465 16.3965C94.6935 16.3965 94.7406 16.3965 94.7891 16.3965C94.7891 29.6648 94.7891 42.9331 94.7891 56.6035C87.2139 56.6035 79.6387 56.6035 71.834 56.6035C72.0487 56.0668 72.2663 55.6004 72.5446 55.0992C72.6299 54.9454 72.7152 54.7917 72.8031 54.6333C72.8959 54.4672 72.9887 54.3012 73.0815 54.1351C73.1289 54.0501 73.1763 53.9651 73.2251 53.8774C73.9709 52.5389 74.7357 51.2123 75.5122 49.8913C76.1053 48.8803 76.682 47.8611 77.252 46.8369C77.9843 45.521 78.7351 44.2174 79.4976 42.9188C80.0925 41.903 80.6717 40.8792 81.2441 39.8506C81.9765 38.5347 82.7273 37.2311 83.4897 35.9325C84.0846 34.9166 84.6639 33.8929 85.2363 32.8643C85.9687 31.5484 86.7194 30.2448 87.4819 28.9461C88.0768 27.9303 88.6561 26.9066 89.2285 25.8779C89.9597 24.564 90.7092 23.2623 91.4707 21.9658C92.1878 20.7413 92.8831 19.5053 93.573 18.2653C93.6514 18.1244 93.7297 17.9836 93.8105 17.8384C93.8792 17.7146 93.9479 17.5908 94.0186 17.4632C94.2221 17.1034 94.425 16.7456 94.6465 16.3965Z" fill="#FFD700"/>
<path d="M129.293 27.9453C129.293 37.4025 129.293 46.8597 129.293 56.6035C119.836 56.6035 110.379 56.6035 100.635 56.6035C100.877 56.1195 101.027 55.8908 101.393 55.5244C101.491 55.4254 101.589 55.3264 101.691 55.2244C101.799 55.1168 101.907 55.0092 102.019 54.8983C102.191 54.7255 102.191 54.7255 102.366 54.5492C102.752 54.1622 103.139 53.7761 103.526 53.3901C103.803 53.1134 104.079 52.8365 104.355 52.5597C105.028 51.8851 105.702 51.2114 106.377 50.5379C106.924 49.9908 107.472 49.4434 108.019 48.8958C108.097 48.818 108.175 48.7401 108.255 48.6598C108.413 48.5017 108.571 48.3435 108.729 48.1853C110.212 46.7015 111.696 45.2187 113.18 43.7362C114.455 42.4629 115.728 41.189 117.002 39.9144C118.479 38.4353 119.957 36.9566 121.436 35.4787C121.594 35.3212 121.751 35.1638 121.909 35.0064C121.986 34.9289 122.064 34.8514 122.143 34.7716C122.691 34.2246 123.238 33.6772 123.785 33.1296C124.45 32.463 125.117 31.7969 125.784 31.1314C126.124 30.7916 126.465 30.4515 126.804 30.1109C127.172 29.7426 127.54 29.3751 127.909 29.0078C128.017 28.8989 128.126 28.79 128.237 28.6778C128.385 28.5316 128.385 28.5316 128.535 28.3824C128.62 28.2974 128.705 28.2123 128.793 28.1248C129.008 27.9453 129.008 27.9453 129.293 27.9453Z" fill="#FFD700"/>
<path d="M98.2109 16.3965C98.6241 16.913 98.9255 17.3329 99.2346 17.9008C99.319 18.0546 99.4033 18.2083 99.4903 18.3667C99.6245 18.6133 99.6245 18.6133 99.7615 18.8649C99.9535 19.2147 100.146 19.5642 100.339 19.9136C100.388 20.0018 100.436 20.0901 100.487 20.181C100.953 21.0243 101.438 21.857 101.927 22.6877C102.603 23.8386 103.265 24.9965 103.914 26.1631C104.566 27.3354 105.231 28.4993 105.91 29.6562C106.589 30.8132 107.254 31.9771 107.906 33.1494C108.731 34.6316 109.578 36.1 110.436 37.5632C110.511 37.6914 110.586 37.8196 110.663 37.9517C110.833 38.2396 111.008 38.5248 111.186 38.8082C111.278 38.9586 111.371 39.1091 111.467 39.2641C111.553 39.4003 111.638 39.5364 111.727 39.6766C111.933 40.1421 111.905 40.2982 111.756 40.7773C111.529 41.0744 111.529 41.0744 111.231 41.3719C111.118 41.4856 111.005 41.5994 110.889 41.7166C110.765 41.8393 110.64 41.9621 110.512 42.0886C110.316 42.2848 110.316 42.2848 110.116 42.485C109.759 42.8433 109.399 43.1998 109.04 43.556C108.664 43.9287 108.29 44.303 107.915 44.6771C107.287 45.3048 106.657 45.9314 106.027 46.5572C105.217 47.3616 104.408 48.1677 103.6 48.9743C102.906 49.6669 102.212 50.3588 101.517 51.0506C101.294 51.2735 101.07 51.4965 100.846 51.7194C100.431 52.1337 100.014 52.5472 99.5977 52.9607C99.4731 53.0849 99.3486 53.2091 99.2202 53.3371C99.1074 53.4488 98.9947 53.5606 98.8785 53.6757C98.78 53.7736 98.6815 53.8715 98.58 53.9724C98.3535 54.1797 98.3535 54.1797 98.2109 54.1797C98.2109 41.7112 98.2109 29.2428 98.2109 16.3965Z" fill="#FFD700"/>
<path d="M63.707 27.9453C64.2007 28.1922 64.4341 28.352 64.8086 28.7283C64.9119 28.8315 65.0152 28.9346 65.1217 29.0409C65.2336 29.1541 65.3456 29.2673 65.4609 29.3839C65.5799 29.5031 65.6989 29.6223 65.8215 29.7451C66.1472 30.0715 66.4723 30.3986 66.7971 30.726C67.1373 31.0685 67.4784 31.4102 67.8195 31.752C68.4653 32.3995 69.1105 33.0476 69.7554 33.696C70.9105 34.8575 72.0665 36.0182 73.2232 37.1781C73.5625 37.5185 73.9017 37.859 74.2404 38.1999C74.618 38.5798 74.9959 38.9593 75.374 39.3388C75.5423 39.5085 75.5423 39.5085 75.714 39.6817C75.8684 39.8365 75.8684 39.8365 76.026 39.9943C76.1599 40.129 76.1599 40.129 76.2965 40.2664C76.5558 40.5199 76.5558 40.5199 76.9668 40.7773C76.7676 41.3046 76.5297 41.7891 76.2561 42.2817C76.1708 42.4354 76.0856 42.5892 75.9977 42.7476C75.9049 42.9137 75.8121 43.0797 75.7192 43.2457C75.6719 43.3308 75.6245 43.4158 75.5757 43.5034C74.8299 44.842 74.0651 46.1685 73.2886 47.4896C72.6955 48.5006 72.1188 49.5197 71.5488 50.5439C70.8652 51.7715 70.171 52.9923 69.4636 54.2064C69.3396 54.4198 69.3396 54.4198 69.213 54.6375C69.0961 54.8374 69.0961 54.8374 68.9769 55.0413C68.9089 55.1575 68.841 55.2737 68.771 55.3934C68.5205 55.8041 68.2512 56.2032 67.9844 56.6035C66.5729 56.6035 65.1613 56.6035 63.707 56.6035C63.707 47.1463 63.707 37.6891 63.707 27.9453Z" fill="#FFD700"/>
</svg>
