<svg width="193" height="104" viewBox="0 0 193 104" fill="none" xmlns="http://www.w3.org/2000/svg">
<path d="M1.8 100V98.02H3.975V91.48H1.8V89.5H8.4V91.48H6.225V98.02H8.4V100H1.8ZM12.0253 100V92.065H14.0803L14.1253 93.82L13.6903 93.76C13.8103 93.52 13.9753 93.29 14.1853 93.07C14.3953 92.85 14.6403 92.655 14.9203 92.485C15.2103 92.315 15.5203 92.18 15.8503 92.08C16.1903 91.97 16.5503 91.915 16.9303 91.915C17.3803 91.915 17.7903 91.985 18.1603 92.125C18.5403 92.265 18.8553 92.49 19.1053 92.8C19.3653 93.1 19.5553 93.495 19.6753 93.985L19.2253 93.925L19.3453 93.685C19.4853 93.455 19.6653 93.24 19.8853 93.04C20.1053 92.83 20.3603 92.64 20.6503 92.47C20.9503 92.3 21.2653 92.165 21.5953 92.065C21.9253 91.965 22.2653 91.915 22.6153 91.915C23.3453 91.915 23.9353 92.055 24.3853 92.335C24.8353 92.605 25.1653 92.99 25.3753 93.49C25.5853 93.99 25.6903 94.575 25.6903 95.245V100H23.5603V95.455C23.5603 95.095 23.5053 94.79 23.3953 94.54C23.2853 94.29 23.1203 94.1 22.9003 93.97C22.6803 93.83 22.3903 93.76 22.0303 93.76C21.7303 93.76 21.4503 93.81 21.1903 93.91C20.9403 94 20.7153 94.13 20.5153 94.3C20.3253 94.47 20.1753 94.67 20.0653 94.9C19.9653 95.12 19.9153 95.36 19.9153 95.62V100H17.7853V95.44C17.7853 95.1 17.7203 94.805 17.5903 94.555C17.4703 94.295 17.2903 94.1 17.0503 93.97C16.8103 93.83 16.5003 93.76 16.1203 93.76C15.8303 93.76 15.5653 93.81 15.3253 93.91C15.0953 94.01 14.8903 94.145 14.7103 94.315C14.5403 94.485 14.4053 94.67 14.3053 94.87C14.2053 95.07 14.1553 95.275 14.1553 95.485V100H12.0253ZM29.3858 103.3V92.065H31.4258L31.4858 93.85L31.1108 93.715C31.1808 93.405 31.3708 93.115 31.6808 92.845C31.9908 92.575 32.3808 92.355 32.8508 92.185C33.3208 92.005 33.8208 91.915 34.3508 91.915C35.1408 91.915 35.8358 92.095 36.4358 92.455C37.0358 92.805 37.5058 93.29 37.8458 93.91C38.1858 94.52 38.3558 95.225 38.3558 96.025C38.3558 96.815 38.1858 97.52 37.8458 98.14C37.5058 98.76 37.0308 99.25 36.4208 99.61C35.8208 99.96 35.1308 100.135 34.3508 100.135C33.8108 100.135 33.3008 100.045 32.8208 99.865C32.3408 99.675 31.9408 99.435 31.6208 99.145C31.3108 98.855 31.1108 98.555 31.0208 98.245L31.5158 98.035V103.3H29.3858ZM33.8708 98.305C34.3508 98.305 34.7708 98.21 35.1308 98.02C35.4908 97.83 35.7708 97.565 35.9708 97.225C36.1808 96.875 36.2858 96.475 36.2858 96.025C36.2858 95.575 36.1858 95.18 35.9858 94.84C35.7858 94.5 35.5058 94.235 35.1458 94.045C34.7858 93.855 34.3608 93.76 33.8708 93.76C33.3908 93.76 32.9658 93.855 32.5958 94.045C32.2358 94.225 31.9508 94.49 31.7408 94.84C31.5408 95.18 31.4408 95.575 31.4408 96.025C31.4408 96.475 31.5408 96.875 31.7408 97.225C31.9508 97.565 32.2358 97.83 32.5958 98.02C32.9658 98.21 33.3908 98.305 33.8708 98.305ZM45.2382 100.15C44.2882 100.15 43.4532 99.975 42.7332 99.625C42.0232 99.275 41.4682 98.795 41.0682 98.185C40.6682 97.575 40.4682 96.875 40.4682 96.085C40.4682 95.455 40.5832 94.885 40.8132 94.375C41.0432 93.865 41.3632 93.425 41.7732 93.055C42.1832 92.685 42.6632 92.4 43.2132 92.2C43.7632 92 44.3532 91.9 44.9832 91.9C45.5832 91.9 46.1382 91.995 46.6482 92.185C47.1682 92.375 47.6182 92.65 47.9982 93.01C48.3782 93.36 48.6732 93.775 48.8832 94.255C49.0932 94.735 49.1882 95.265 49.1682 95.845L49.1532 96.535H41.9382L41.5932 95.2H47.3982L47.1582 95.47V95.14C47.1282 94.87 47.0082 94.625 46.7982 94.405C46.5982 94.185 46.3432 94.01 46.0332 93.88C45.7232 93.75 45.3832 93.685 45.0132 93.685C44.5132 93.685 44.0732 93.77 43.6932 93.94C43.3132 94.1 43.0132 94.345 42.7932 94.675C42.5832 95.005 42.4782 95.42 42.4782 95.92C42.4782 96.4 42.6032 96.82 42.8532 97.18C43.1132 97.53 43.4682 97.805 43.9182 98.005C44.3782 98.195 44.9132 98.29 45.5232 98.29C46.0432 98.29 46.4832 98.225 46.8432 98.095C47.2132 97.955 47.5532 97.775 47.8632 97.555L48.8382 98.98C48.5282 99.22 48.1732 99.43 47.7732 99.61C47.3832 99.79 46.9732 99.925 46.5432 100.015C46.1132 100.105 45.6782 100.15 45.2382 100.15ZM52.2227 100V92.065H54.2627L54.3377 94.765L53.8577 94.45C53.9977 93.98 54.2227 93.55 54.5327 93.16C54.8527 92.77 55.2227 92.465 55.6427 92.245C56.0627 92.015 56.5027 91.9 56.9627 91.9C57.2227 91.9 57.4677 91.925 57.6977 91.975C57.9377 92.025 58.1327 92.09 58.2827 92.17L57.7127 94.48C57.5627 94.38 57.3627 94.3 57.1127 94.24C56.8727 94.18 56.6327 94.15 56.3927 94.15C56.0927 94.15 55.8127 94.205 55.5527 94.315C55.3027 94.415 55.0877 94.555 54.9077 94.735C54.7277 94.915 54.5877 95.12 54.4877 95.35C54.3977 95.58 54.3527 95.82 54.3527 96.07V100H52.2227ZM61.1318 100V92.065H63.2618V100H61.1318ZM62.1968 90.37C61.7768 90.37 61.4518 90.27 61.2218 90.07C61.0018 89.87 60.8918 89.585 60.8918 89.215C60.8918 88.875 61.0068 88.6 61.2368 88.39C61.4668 88.17 61.7868 88.06 62.1968 88.06C62.6068 88.06 62.9218 88.165 63.1418 88.375C63.3718 88.575 63.4868 88.855 63.4868 89.215C63.4868 89.565 63.3718 89.845 63.1418 90.055C62.9118 90.265 62.5968 90.37 62.1968 90.37ZM70.2681 100.15C69.4881 100.15 68.7981 99.975 68.1981 99.625C67.6081 99.265 67.1431 98.775 66.8031 98.155C66.4731 97.535 66.3081 96.82 66.3081 96.01C66.3081 95.21 66.4781 94.505 66.8181 93.895C67.1681 93.275 67.6431 92.79 68.2431 92.44C68.8531 92.08 69.5531 91.9 70.3431 91.9C70.8031 91.9 71.2281 91.96 71.6181 92.08C72.0081 92.2 72.3481 92.365 72.6381 92.575C72.9281 92.775 73.1631 93 73.3431 93.25C73.5331 93.49 73.6531 93.745 73.7031 94.015L73.2231 94V92.065H75.3231V100H73.1931V97.975L73.6431 98.02C73.5831 98.28 73.4581 98.535 73.2681 98.785C73.0781 99.035 72.8281 99.265 72.5181 99.475C72.2181 99.675 71.8731 99.84 71.4831 99.97C71.1031 100.09 70.6981 100.15 70.2681 100.15ZM70.8381 98.305C71.3181 98.305 71.7381 98.21 72.0981 98.02C72.4681 97.83 72.7531 97.565 72.9531 97.225C73.1531 96.875 73.2531 96.47 73.2531 96.01C73.2531 95.57 73.1531 95.18 72.9531 94.84C72.7531 94.5 72.4681 94.23 72.0981 94.03C71.7381 93.83 71.3181 93.73 70.8381 93.73C70.3581 93.73 69.9381 93.83 69.5781 94.03C69.2181 94.23 68.9331 94.5 68.7231 94.84C68.5231 95.18 68.4231 95.57 68.4231 96.01C68.4231 96.47 68.5231 96.875 68.7231 97.225C68.9331 97.565 69.2181 97.83 69.5781 98.02C69.9381 98.21 70.3581 98.305 70.8381 98.305ZM79.0433 100V88.9H81.1733V100H79.0433ZM90.8057 100V89.5H96.0257C96.7257 89.5 97.3457 89.645 97.8857 89.935C98.4357 90.215 98.8607 90.61 99.1607 91.12C99.4707 91.62 99.6257 92.19 99.6257 92.83C99.6257 93.47 99.4657 94.05 99.1457 94.57C98.8257 95.09 98.3857 95.505 97.8257 95.815C97.2757 96.115 96.6657 96.265 95.9957 96.265H92.9807V100H90.8057ZM97.5107 100L94.4807 95.26L96.8207 94.885L100.151 100.015L97.5107 100ZM92.9807 94.435H95.8307C96.1307 94.435 96.3957 94.37 96.6257 94.24C96.8557 94.11 97.0357 93.93 97.1657 93.7C97.2957 93.47 97.3607 93.21 97.3607 92.92C97.3607 92.63 97.2857 92.375 97.1357 92.155C96.9957 91.935 96.7957 91.765 96.5357 91.645C96.2857 91.515 95.9907 91.45 95.6507 91.45H92.9807V94.435ZM106.82 100.15C105.87 100.15 105.035 99.975 104.315 99.625C103.605 99.275 103.05 98.795 102.65 98.185C102.25 97.575 102.05 96.875 102.05 96.085C102.05 95.455 102.165 94.885 102.395 94.375C102.625 93.865 102.945 93.425 103.355 93.055C103.765 92.685 104.245 92.4 104.795 92.2C105.345 92 105.935 91.9 106.565 91.9C107.165 91.9 107.72 91.995 108.23 92.185C108.75 92.375 109.2 92.65 109.58 93.01C109.96 93.36 110.255 93.775 110.465 94.255C110.675 94.735 110.77 95.265 110.75 95.845L110.735 96.535H103.52L103.175 95.2H108.98L108.74 95.47V95.14C108.71 94.87 108.59 94.625 108.38 94.405C108.18 94.185 107.925 94.01 107.615 93.88C107.305 93.75 106.965 93.685 106.595 93.685C106.095 93.685 105.655 93.77 105.275 93.94C104.895 94.1 104.595 94.345 104.375 94.675C104.165 95.005 104.06 95.42 104.06 95.92C104.06 96.4 104.185 96.82 104.435 97.18C104.695 97.53 105.05 97.805 105.5 98.005C105.96 98.195 106.495 98.29 107.105 98.29C107.625 98.29 108.065 98.225 108.425 98.095C108.795 97.955 109.135 97.775 109.445 97.555L110.42 98.98C110.11 99.22 109.755 99.43 109.355 99.61C108.965 99.79 108.555 99.925 108.125 100.015C107.695 100.105 107.26 100.15 106.82 100.15ZM116.745 100.15C115.895 100.15 115.135 100.03 114.465 99.79C113.795 99.54 113.25 99.18 112.83 98.71L114.165 97.54C114.495 97.88 114.89 98.135 115.35 98.305C115.81 98.475 116.3 98.56 116.82 98.56C117 98.56 117.175 98.545 117.345 98.515C117.525 98.485 117.68 98.44 117.81 98.38C117.94 98.31 118.045 98.225 118.125 98.125C118.205 98.025 118.245 97.91 118.245 97.78C118.245 97.56 118.11 97.385 117.84 97.255C117.67 97.195 117.45 97.13 117.18 97.06C116.92 96.99 116.625 96.925 116.295 96.865C115.735 96.745 115.245 96.61 114.825 96.46C114.405 96.31 114.055 96.125 113.775 95.905C113.555 95.695 113.385 95.46 113.265 95.2C113.145 94.94 113.085 94.64 113.085 94.3C113.085 93.94 113.175 93.61 113.355 93.31C113.535 93.01 113.79 92.76 114.12 92.56C114.45 92.35 114.825 92.19 115.245 92.08C115.675 91.96 116.13 91.9 116.61 91.9C117.07 91.9 117.52 91.95 117.96 92.05C118.41 92.14 118.835 92.275 119.235 92.455C119.635 92.635 119.98 92.86 120.27 93.13L119.16 94.42C118.94 94.25 118.685 94.095 118.395 93.955C118.105 93.805 117.8 93.69 117.48 93.61C117.17 93.52 116.865 93.475 116.565 93.475C116.385 93.475 116.205 93.49 116.025 93.52C115.855 93.54 115.705 93.58 115.575 93.64C115.445 93.7 115.34 93.775 115.26 93.865C115.19 93.955 115.155 94.065 115.155 94.195C115.155 94.305 115.18 94.405 115.23 94.495C115.29 94.575 115.37 94.645 115.47 94.705C115.62 94.805 115.835 94.895 116.115 94.975C116.395 95.045 116.74 95.125 117.15 95.215C117.73 95.335 118.23 95.475 118.65 95.635C119.08 95.785 119.425 95.975 119.685 96.205C119.895 96.365 120.055 96.565 120.165 96.805C120.275 97.035 120.33 97.295 120.33 97.585C120.33 98.095 120.17 98.545 119.85 98.935C119.54 99.315 119.115 99.615 118.575 99.835C118.045 100.045 117.435 100.15 116.745 100.15ZM124.035 100V89.875H126.165V100H124.035ZM122.19 93.97V92.065H128.265V93.97H122.19ZM134.267 100.15C133.487 100.15 132.797 99.975 132.197 99.625C131.607 99.265 131.142 98.775 130.802 98.155C130.472 97.535 130.307 96.82 130.307 96.01C130.307 95.21 130.477 94.505 130.817 93.895C131.167 93.275 131.642 92.79 132.242 92.44C132.852 92.08 133.552 91.9 134.342 91.9C134.802 91.9 135.227 91.96 135.617 92.08C136.007 92.2 136.347 92.365 136.637 92.575C136.927 92.775 137.162 93 137.342 93.25C137.532 93.49 137.652 93.745 137.702 94.015L137.222 94V92.065H139.322V100H137.192V97.975L137.642 98.02C137.582 98.28 137.457 98.535 137.267 98.785C137.077 99.035 136.827 99.265 136.517 99.475C136.217 99.675 135.872 99.84 135.482 99.97C135.102 100.09 134.697 100.15 134.267 100.15ZM134.837 98.305C135.317 98.305 135.737 98.21 136.097 98.02C136.467 97.83 136.752 97.565 136.952 97.225C137.152 96.875 137.252 96.47 137.252 96.01C137.252 95.57 137.152 95.18 136.952 94.84C136.752 94.5 136.467 94.23 136.097 94.03C135.737 93.83 135.317 93.73 134.837 93.73C134.357 93.73 133.937 93.83 133.577 94.03C133.217 94.23 132.932 94.5 132.722 94.84C132.522 95.18 132.422 95.57 132.422 96.01C132.422 96.47 132.522 96.875 132.722 97.225C132.932 97.565 133.217 97.83 133.577 98.02C133.937 98.21 134.357 98.305 134.837 98.305ZM145.881 100.15C145.251 100.15 144.701 100.01 144.231 99.73C143.771 99.45 143.416 99.045 143.166 98.515C142.916 97.985 142.791 97.345 142.791 96.595V92.065H144.921V96.19C144.921 96.64 144.986 97.025 145.116 97.345C145.246 97.655 145.446 97.89 145.716 98.05C145.986 98.21 146.316 98.29 146.706 98.29C146.996 98.29 147.261 98.245 147.501 98.155C147.751 98.065 147.966 97.935 148.146 97.765C148.326 97.595 148.466 97.395 148.566 97.165C148.676 96.935 148.731 96.68 148.731 96.4V92.065H150.861V100H148.836L148.761 98.365L149.151 98.185C149.041 98.525 148.831 98.85 148.521 99.16C148.211 99.46 147.831 99.7 147.381 99.88C146.931 100.06 146.431 100.15 145.881 100.15ZM154.63 100V92.065H156.67L156.745 94.765L156.265 94.45C156.405 93.98 156.63 93.55 156.94 93.16C157.26 92.77 157.63 92.465 158.05 92.245C158.47 92.015 158.91 91.9 159.37 91.9C159.63 91.9 159.875 91.925 160.105 91.975C160.345 92.025 160.54 92.09 160.69 92.17L160.12 94.48C159.97 94.38 159.77 94.3 159.52 94.24C159.28 94.18 159.04 94.15 158.8 94.15C158.5 94.15 158.22 94.205 157.96 94.315C157.71 94.415 157.495 94.555 157.315 94.735C157.135 94.915 156.995 95.12 156.895 95.35C156.805 95.58 156.76 95.82 156.76 96.07V100H154.63ZM166.142 100.15C165.362 100.15 164.672 99.975 164.072 99.625C163.482 99.265 163.017 98.775 162.677 98.155C162.347 97.535 162.182 96.82 162.182 96.01C162.182 95.21 162.352 94.505 162.692 93.895C163.042 93.275 163.517 92.79 164.117 92.44C164.727 92.08 165.427 91.9 166.217 91.9C166.677 91.9 167.102 91.96 167.492 92.08C167.882 92.2 168.222 92.365 168.512 92.575C168.802 92.775 169.037 93 169.217 93.25C169.407 93.49 169.527 93.745 169.577 94.015L169.097 94V92.065H171.197V100H169.067V97.975L169.517 98.02C169.457 98.28 169.332 98.535 169.142 98.785C168.952 99.035 168.702 99.265 168.392 99.475C168.092 99.675 167.747 99.84 167.357 99.97C166.977 100.09 166.572 100.15 166.142 100.15ZM166.712 98.305C167.192 98.305 167.612 98.21 167.972 98.02C168.342 97.83 168.627 97.565 168.827 97.225C169.027 96.875 169.127 96.47 169.127 96.01C169.127 95.57 169.027 95.18 168.827 94.84C168.627 94.5 168.342 94.23 167.972 94.03C167.612 93.83 167.192 93.73 166.712 93.73C166.232 93.73 165.812 93.83 165.452 94.03C165.092 94.23 164.807 94.5 164.597 94.84C164.397 95.18 164.297 95.57 164.297 96.01C164.297 96.47 164.397 96.875 164.597 97.225C164.807 97.565 165.092 97.83 165.452 98.02C165.812 98.21 166.232 98.305 166.712 98.305ZM174.947 100V92.065H176.987L177.032 93.925L176.522 94.075C176.662 93.695 176.887 93.34 177.197 93.01C177.517 92.68 177.902 92.415 178.352 92.215C178.802 92.005 179.287 91.9 179.807 91.9C180.497 91.9 181.072 92.035 181.532 92.305C182.002 92.575 182.357 92.955 182.597 93.445C182.837 93.935 182.957 94.525 182.957 95.215V100H180.827V95.5C180.827 95.11 180.757 94.785 180.617 94.525C180.477 94.265 180.272 94.07 180.002 93.94C179.742 93.8 179.437 93.73 179.087 93.73C178.787 93.73 178.512 93.785 178.262 93.895C178.022 93.995 177.812 94.13 177.632 94.3C177.452 94.47 177.312 94.66 177.212 94.87C177.112 95.07 177.062 95.28 177.062 95.5V100H176.012C175.732 100 175.502 100 175.322 100C175.152 100 175.027 100 174.947 100ZM187.565 100V89.875H189.695V100H187.565ZM185.72 93.97V92.065H191.795V93.97H185.72Z" fill="#FFD700"/>
<path d="M96.7584 12.8409C96.874 12.8455 96.9896 12.8501 97.1087 12.8548C98.3501 13.2367 98.8989 14.4216 99.4852 15.4875C99.6255 15.7366 99.7658 15.9858 99.9062 16.2348C100.052 16.4947 100.198 16.755 100.343 17.0155C100.81 17.8528 101.289 18.6835 101.766 19.5154C101.958 19.8505 102.149 20.1859 102.341 20.5212C102.865 21.4397 103.389 22.358 103.914 23.2761C104.152 23.6919 104.389 24.1077 104.627 24.5234C104.722 24.6898 104.817 24.8561 104.912 25.0224C105.863 26.6858 106.813 28.3493 107.764 30.0127C107.811 30.095 107.858 30.1773 107.906 30.2621C108.001 30.4286 108.096 30.5951 108.192 30.7617C108.428 31.175 108.664 31.5883 108.901 32.0016C109.346 32.7797 109.79 33.5582 110.231 34.3384C110.439 34.7063 110.648 35.0738 110.857 35.4413C110.956 35.6163 111.055 35.7914 111.154 35.9667C111.291 36.2099 111.429 36.4527 111.566 36.6955C111.645 36.8336 111.723 36.9717 111.803 37.114C112.046 37.5066 112.32 37.8529 112.611 38.2109C112.676 38.1459 112.741 38.0809 112.807 38.0139C114.383 36.4317 115.96 34.8502 117.538 33.2696C118.301 32.5052 119.063 31.7405 119.825 30.9752C120.49 30.3082 121.154 29.6416 121.82 28.9756C122.172 28.623 122.524 28.2702 122.875 27.9167C123.268 27.522 123.661 27.1284 124.055 26.7349C124.171 26.6178 124.287 26.5006 124.407 26.38C124.515 26.2726 124.622 26.1653 124.733 26.0546C124.826 25.9615 124.919 25.8683 125.015 25.7723C125.767 25.1125 126.336 25.0172 127.314 25.0436C128.055 25.1341 128.42 25.4913 128.91 26.0205C129.37 26.7017 129.314 27.3995 129.314 28.199C129.314 28.3267 129.315 28.4545 129.316 28.5862C129.317 29.0152 129.318 29.4442 129.318 29.8733C129.319 30.1806 129.32 30.4878 129.321 30.7951C129.324 31.8049 129.325 32.8146 129.327 33.8244C129.327 34.172 129.328 34.5196 129.329 34.8672C129.331 36.5 129.333 38.1327 129.335 39.7655C129.336 41.6506 129.34 43.5357 129.346 45.4207C129.35 46.8777 129.352 48.3346 129.352 49.7915C129.353 50.6617 129.354 51.532 129.358 52.4022C129.361 53.2209 129.362 54.0396 129.36 54.8583C129.36 55.1586 129.361 55.4588 129.363 55.7591C129.365 56.1695 129.364 56.5798 129.362 56.9903C129.365 57.1678 129.365 57.1678 129.367 57.3489C129.358 58.1535 129.187 58.7882 128.723 59.4551C127.95 60.07 127.394 60.1858 126.424 60.1871C126.319 60.1874 126.214 60.1878 126.107 60.1881C125.753 60.1891 125.4 60.189 125.046 60.1889C124.792 60.1894 124.537 60.1899 124.282 60.1905C123.58 60.1919 122.877 60.1925 122.175 60.1929C121.418 60.1934 120.662 60.1948 119.905 60.196C118.077 60.1988 116.248 60.2003 114.42 60.2015C113.56 60.2022 112.699 60.2029 111.839 60.2037C108.979 60.2061 106.119 60.2082 103.259 60.2092C102.517 60.2095 101.775 60.2098 101.032 60.21C100.848 60.2101 100.663 60.2102 100.473 60.2102C97.483 60.2114 94.4929 60.215 91.5028 60.2197C88.4345 60.2244 85.3662 60.2269 82.2979 60.2274C80.5745 60.2277 78.8511 60.229 77.1278 60.2326C75.6603 60.2357 74.1928 60.2368 72.7253 60.2355C71.9764 60.2348 71.2275 60.2351 70.4786 60.2378C69.7931 60.2404 69.1075 60.2402 68.422 60.238C68.1739 60.2377 67.9259 60.2383 67.6779 60.24C65.3516 60.2548 65.3516 60.2548 64.4199 59.5976C63.7582 58.7662 63.6859 58.1093 63.687 57.0789C63.6866 56.9511 63.6861 56.8234 63.6857 56.6918C63.6845 56.2619 63.6842 55.8321 63.684 55.4023C63.6834 55.0948 63.6827 54.7873 63.6819 54.4799C63.68 53.6432 63.6791 52.8066 63.6785 51.97C63.678 51.4475 63.6775 50.925 63.6768 50.4025C63.6749 48.7682 63.6735 47.134 63.6729 45.4998C63.6723 43.6123 63.6698 41.7248 63.6657 39.8373C63.6626 38.379 63.6611 36.9208 63.661 35.4626C63.6608 34.5913 63.66 33.72 63.6574 32.8488C63.6551 32.0291 63.6548 31.2095 63.656 30.3898C63.6561 30.089 63.6555 29.7883 63.6541 29.4875C63.6523 29.0767 63.6531 28.666 63.6546 28.2552C63.6535 28.1364 63.6523 28.0175 63.6511 27.8951C63.6582 27.0623 63.7828 26.3486 64.3536 25.7008C64.9748 25.2401 65.3058 25.0636 66.0774 25.0313C66.2204 25.0227 66.3633 25.0141 66.5107 25.0052C67.6774 25.2224 68.5776 26.3601 69.382 27.1719C69.5018 27.2916 69.6215 27.4113 69.7449 27.5347C70.07 27.8599 70.3944 28.1858 70.7186 28.5119C71.0587 28.8538 71.3996 29.1949 71.7404 29.5361C72.3843 30.1808 73.0274 30.8262 73.6702 31.472C74.4027 32.2077 75.1361 32.9426 75.8694 33.6774C77.3768 35.1876 78.883 36.6989 80.3886 38.2109C80.7521 37.8612 80.9813 37.526 81.2246 37.082C81.303 36.9402 81.3814 36.7984 81.4622 36.6523C81.588 36.4225 81.588 36.4225 81.7164 36.1881C81.8968 35.8621 82.0774 35.5363 82.2583 35.2106C82.3044 35.1276 82.3505 35.0446 82.398 34.959C82.8568 34.1348 83.3323 33.3208 83.8105 32.5078C84.4899 31.3509 85.1542 30.1869 85.8066 29.0146C86.5389 27.6987 87.2897 26.3951 88.0522 25.0965C88.6471 24.0807 89.2263 23.0569 89.7988 22.0283C90.5375 20.7013 91.2916 19.3844 92.0623 18.0757C92.4715 17.3798 92.8743 16.6816 93.2636 15.9743C93.3767 15.7704 93.3767 15.7704 93.4921 15.5623C93.6329 15.3077 93.7721 15.0522 93.9094 14.7957C94.3518 13.999 94.8828 13.169 95.7966 12.882C96.1278 12.8219 96.4223 12.8203 96.7584 12.8409ZM94.0761 24.0957C94.0011 24.2308 94.0011 24.2308 93.9246 24.3686C92.9923 26.0453 92.0535 27.7167 91.082 29.3711C90.4027 30.528 89.7383 31.692 89.0859 32.8642C88.3536 34.1801 87.6028 35.4837 86.8403 36.7823C86.2454 37.7982 85.6662 38.8219 85.0937 39.8506C84.3614 41.1665 83.6106 42.4701 82.8481 43.7687C82.2532 44.7845 81.674 45.8083 81.1015 46.8369C80.4459 48.0149 79.7785 49.1849 79.0965 50.3479C78.4079 51.5224 77.727 52.7009 77.0559 53.8856C76.9752 54.0276 76.8945 54.1696 76.8113 54.3159C76.738 54.4457 76.6647 54.5756 76.5892 54.7093C76.5242 54.8242 76.4593 54.939 76.3923 55.0574C76.2428 55.2918 76.2428 55.2918 76.2539 55.4629C82.1823 55.4629 88.1107 55.4629 94.2187 55.4629C94.2187 45.1117 94.2187 34.7605 94.2187 24.0957C94.1717 24.0957 94.1246 24.0957 94.0761 24.0957ZM98.7812 24.0957C98.7812 33.3176 98.7812 42.5396 98.7812 52.041C99.4637 51.456 100.112 50.8728 100.743 50.2377C100.834 50.1472 100.924 50.0566 101.018 49.9634C101.313 49.6675 101.609 49.3711 101.904 49.0747C102.11 48.8681 102.317 48.6616 102.523 48.455C103.064 47.9139 103.604 47.3723 104.144 46.8307C104.696 46.277 105.249 45.7238 105.801 45.1705C106.884 44.0867 107.965 43.0025 109.047 41.9179C108.867 41.5787 108.687 41.2397 108.506 40.9006C108.456 40.8056 108.406 40.7105 108.354 40.6126C107.911 39.7812 107.442 38.9677 106.962 38.1574C106.264 36.9712 105.581 35.7779 104.912 34.5752C104.18 33.2605 103.43 31.9582 102.669 30.6608C101.969 29.4661 101.29 28.2605 100.618 27.0503C100.208 26.3129 99.7939 25.5778 99.3733 24.8464C99.2907 24.7028 99.2082 24.5591 99.1231 24.4111C99.0574 24.307 98.9916 24.2029 98.9238 24.0957C98.8767 24.0957 98.8297 24.0957 98.7812 24.0957ZM68.4121 33.0781C68.4121 40.4651 68.4121 47.852 68.4121 55.4629C69.2119 55.4629 70.0118 55.4629 70.8359 55.4629C71.0432 55.1001 71.0432 55.1001 71.2547 54.7299C71.9739 53.4713 72.6931 52.2127 73.4123 50.9541C73.4595 50.8716 73.5066 50.7891 73.5552 50.7041C73.6962 50.4574 73.8371 50.2107 73.9781 49.9641C74.1649 49.6372 74.3516 49.3103 74.5383 48.9834C74.9829 48.2052 75.4277 47.4271 75.8737 46.6496C76.0837 46.2834 76.2935 45.9171 76.5033 45.5508C76.6031 45.3766 76.703 45.2025 76.8031 45.0284C76.9419 44.7867 77.0805 44.5447 77.2191 44.3028C77.2979 44.1654 77.3767 44.0281 77.4579 43.8865C77.6867 43.4735 77.8974 43.0537 78.1074 42.6308C76.8647 41.3849 75.6217 40.1393 74.3782 38.8943C73.8009 38.3162 73.2237 37.738 72.6468 37.1595C72.0906 36.6017 71.534 36.0443 70.9772 35.4871C70.7643 35.274 70.5515 35.0607 70.3389 34.8472C70.0422 34.5495 69.745 34.2522 69.4478 33.955C69.3589 33.8657 69.2701 33.7764 69.1786 33.6843C68.8483 33.2721 68.8483 33.2721 68.4121 33.0781ZM123.845 33.6596C123.759 33.746 123.672 33.8325 123.584 33.9215C123.447 34.0576 123.447 34.0576 123.308 34.1965C123.001 34.5032 122.694 34.8104 122.387 35.1176C122.168 35.3365 121.949 35.5554 121.73 35.7743C121.133 36.3708 120.536 36.9677 119.939 37.5648C119.317 38.1879 118.694 38.8107 118.07 39.4336C117.024 40.4798 115.978 41.5264 114.932 42.5732C113.72 43.7854 112.508 44.997 111.296 46.2085C110.258 47.2464 109.219 48.2846 108.181 49.323C107.56 49.9442 106.939 50.5652 106.318 51.1861C105.734 51.7696 105.15 52.3534 104.567 52.9376C104.352 53.1526 104.137 53.3675 103.922 53.5823C103.63 53.8741 103.338 54.1664 103.047 54.4587C102.917 54.5879 102.917 54.5879 102.785 54.7197C102.387 55.0394 102.387 55.0394 102.203 55.4629C109.59 55.4629 116.977 55.4629 124.588 55.4629C124.588 48.0759 124.588 40.6889 124.588 33.0781C124.27 33.0781 124.058 33.4469 123.845 33.6596Z" fill="#FFD700"/>
</svg>
